<svg xmlns="http://www.w3.org/2000/svg" xmlns:xlink="http://www.w3.org/1999/xlink"><symbol id="chevron-back" viewBox="0 0 20 20"><path fill-rule="evenodd" clip-rule="evenodd" d="M9.703 5.331a1 1 0 0 1 .014 1.414l-3.303 3.371 3.289 3.222a1 1 0 0 1-1.4 1.428L4.3 10.845a1 1 0 0 1-.014-1.414l4.003-4.085a1 1 0 0 1 1.414-.015Z"/><path fill-rule="evenodd" clip-rule="evenodd" d="M14.817 5.331a1 1 0 0 1 .015 1.414l-3.304 3.371 3.29 3.222a1 1 0 0 1-1.4 1.428l-4.004-3.921A1 1 0 0 1 9.4 9.43l4.003-4.085a1 1 0 0 1 1.414-.015Z"/></symbol><symbol id="chevron-down" viewBox="0 0 24 24"><path fill-rule="evenodd" clip-rule="evenodd" d="M5.838 10.111a1 1 0 0 1 1.415 0L12 14.858l4.747-4.747a1 1 0 1 1 1.415 1.414l-5.455 5.455a1 1 0 0 1-1.414 0l-5.455-5.455a1 1 0 0 1 0-1.414Z"/></symbol><symbol id="chevron-forward" viewBox="0 0 20 20"><path fill-rule="evenodd" clip-rule="evenodd" d="M9.46 14.766a1 1 0 0 1-.014-1.414l3.303-3.37L9.46 6.76a1 1 0 0 1 1.4-1.429l4.003 3.922a1 1 0 0 1 .014 1.414l-4.003 4.085a1 1 0 0 1-1.414.014Z"/><path fill-rule="evenodd" clip-rule="evenodd" d="M4.346 14.766a1 1 0 0 1-.015-1.414l3.304-3.37-3.29-3.222a1 1 0 1 1 1.4-1.429L9.75 9.253a1 1 0 0 1 .014 1.414L5.76 14.752a1 1 0 0 1-1.414.014Z"/></symbol><symbol id="chevron-left" viewBox="0 0 24 24"><path fill-rule="evenodd" clip-rule="evenodd" d="M14.69 18.224a1 1 0 0 1-1.414-.034l-5-5.25a1 1 0 0 1 0-1.38l5-5.25a1 1 0 1 1 1.448 1.38l-4.343 4.56 4.343 4.56a1 1 0 0 1-.034 1.414Z"/></symbol><symbol id="chevron-right" viewBox="0 0 24 24"><path fill-rule="evenodd" clip-rule="evenodd" d="M8.31 18.224a1 1 0 0 1-.034-1.414l4.343-4.56-4.343-4.56a1 1 0 0 1 1.448-1.38l5 5.25a1 1 0 0 1 0 1.38l-5 5.25a1 1 0 0 1-1.414.034Z"/></symbol><symbol id="chevron-up" viewBox="0 0 24 24"><path fill-rule="evenodd" clip-rule="evenodd" d="M18.156 16.531a1 1 0 0 1-1.414-.012L12 11.7l-4.742 4.82a1 1 0 1 1-1.425-1.402l5.454-5.546a1 1 0 0 1 1.426 0l5.455 5.546a1 1 0 0 1-.012 1.414Z"/></symbol><symbol id="cross" viewBox="0 0 20 20"><path fill-rule="evenodd" clip-rule="evenodd" d="m17.29 3.922-1.178-1.178-6.077 6.078-6.078-6.078-1.179 1.178L8.856 10l-6.078 6.078 1.18 1.178 6.077-6.078 6.077 6.078 1.179-1.178L11.213 10l6.078-6.078Z"/></symbol><symbol id="help" viewBox="0 0 20 20"><path fill-rule="evenodd" clip-rule="evenodd" d="M10 18.333c-4.595 0-8.333-3.737-8.333-8.333 0-4.594 3.738-8.333 8.333-8.333 4.595 0 8.333 3.738 8.333 8.333 0 4.596-3.738 8.333-8.333 8.333Zm0-15A6.674 6.674 0 0 0 3.333 10 6.674 6.674 0 0 0 10 16.667 6.674 6.674 0 0 0 16.666 10 6.674 6.674 0 0 0 10 3.333Z"/><path fill-rule="evenodd" clip-rule="evenodd" d="M10.833 12.5H9.166V10H10a1.668 1.668 0 0 0 0-3.333c-.92 0-1.667.746-1.667 1.666H6.666A3.338 3.338 0 0 1 10 5a3.338 3.338 0 0 1 3.333 3.333 3.343 3.343 0 0 1-2.5 3.23v.937Zm-.097.93a1.042 1.042 0 1 1-1.473 1.473 1.042 1.042 0 0 1 1.473-1.473Z"/></symbol><symbol id="minus" viewBox="0 0 20 20"><path fill-rule="evenodd" clip-rule="evenodd" d="M15.833 10.833H4.167V9.167h11.666v1.666Z"/></symbol><symbol id="plus" viewBox="0 0 20 20"><g style="enable-background:new 0 0 20 20"><path d="M16 9h-5V4c0-.6-.4-1-1-1s-1 .4-1 1v5H4c-.6 0-1 .4-1 1s.4 1 1 1h5v5c0 .6.4 1 1 1s1-.4 1-1v-5h5c.6 0 1-.4 1-1s-.4-1-1-1z"/></g></symbol></svg>